%FSLAX35Y35*%
%MOIN*%
G04 EasyPC Gerber Version 18.0.8 Build 3632 *
%ADD14R,0.06000X0.06000*%
%ADD15R,0.06000X0.06000*%
%ADD10C,0.00500*%
%ADD11C,0.01000*%
%ADD18C,0.01500*%
%ADD17C,0.04800*%
%ADD16C,0.05000*%
%ADD12C,0.06000*%
%ADD13R,0.06000X0.06000*%
X0Y0D02*
D02*
D10*
X13000Y10624D02*
X248157D01*
Y367829*
X13000*
Y10624*
X43750Y20232D02*
Y28732D01*
X52250*
Y20232*
X43750*
X52250Y138732D02*
Y130232D01*
X43750*
Y138732*
X52250*
X53750Y20232D02*
Y28732D01*
X62250*
Y20232*
X53750*
X62250Y138732D02*
Y130232D01*
X53750*
Y138732*
X62250*
X63750Y20232D02*
Y28732D01*
X72250*
Y20232*
X63750*
X72250Y138732D02*
Y130232D01*
X63750*
Y138732*
X72250*
X73750Y20232D02*
Y28732D01*
X82250*
Y20232*
X73750*
X82250Y138732D02*
Y130232D01*
X73750*
Y138732*
X82250*
X83750Y20232D02*
Y28732D01*
X92250*
Y20232*
X83750*
X92250Y138732D02*
Y130232D01*
X83750*
Y138732*
X92250*
X93750Y20232D02*
Y28732D01*
X102250*
Y20232*
X93750*
X102250Y138732D02*
Y130232D01*
X93750*
Y138732*
X102250*
X103750Y20232D02*
Y28732D01*
X112250*
Y20232*
X103750*
X112250Y138732D02*
Y130232D01*
X103750*
Y138732*
X112250*
X113750Y20232D02*
Y28732D01*
X122250*
Y20232*
X113750*
X121250Y203732D02*
X129750D01*
Y195232*
X121250*
Y203732*
Y213732D02*
X129750D01*
Y205232*
X121250*
Y213732*
Y223732D02*
X129750D01*
Y215232*
X121250*
Y223732*
Y233732D02*
X129750D01*
Y225232*
X121250*
Y233732*
Y243732D02*
X129750D01*
Y235232*
X121250*
Y243732*
Y253732D02*
X129750D01*
Y245232*
X121250*
Y253732*
Y263732D02*
X129750D01*
Y255232*
X121250*
Y263732*
Y273732D02*
X129750D01*
Y265232*
X121250*
Y273732*
Y283732D02*
X129750D01*
Y275232*
X121250*
Y283732*
X122250Y138732D02*
Y130232D01*
X113750*
Y138732*
X122250*
X133750Y79482D02*
G75*
G02X142250I4250D01*
G01*
G75*
G02X133750I-4250*
G01*
X139750Y185232D02*
X131250D01*
Y193732*
X139750*
Y185232*
Y195232D02*
X131250D01*
Y203732*
X139750*
Y195232*
Y205232D02*
X131250D01*
Y213732*
X139750*
Y205232*
Y215232D02*
X131250D01*
Y223732*
X139750*
Y215232*
Y225232D02*
X131250D01*
Y233732*
X139750*
Y225232*
Y235232D02*
X131250D01*
Y243732*
X139750*
Y235232*
Y245232D02*
X131250D01*
Y253732*
X139750*
Y245232*
Y255232D02*
X131250D01*
Y263732*
X139750*
Y255232*
Y265232D02*
X131250D01*
Y273732*
X139750*
Y265232*
Y275232D02*
X131250D01*
Y283732*
X139750*
Y275232*
X140708Y209482D02*
G75*
G02X148008I3650D01*
G01*
G75*
G02X140708I-3650*
G01*
X155856Y29854D02*
X164356D01*
Y21354*
X155856*
Y29854*
Y39854D02*
X164356D01*
Y31354*
X155856*
Y39854*
Y49854D02*
X164356D01*
Y41354*
X155856*
Y49854*
Y59854D02*
X164356D01*
Y51354*
X155856*
Y59854*
Y69854D02*
X164356D01*
Y61354*
X155856*
Y69854*
Y79854D02*
X164356D01*
Y71354*
X155856*
Y79854*
Y89854D02*
X164356D01*
Y81354*
X155856*
Y89854*
Y99854D02*
X164356D01*
Y91354*
X155856*
Y99854*
Y109854D02*
X164356D01*
Y101354*
X155856*
Y109854*
Y119854D02*
X164356D01*
Y111354*
X155856*
Y119854*
Y129854D02*
X164356D01*
Y121354*
X155856*
Y129854*
Y139854D02*
X164356D01*
Y131354*
X155856*
Y139854*
Y149854D02*
X164356D01*
Y141354*
X155856*
Y149854*
Y159854D02*
X164356D01*
Y151354*
X155856*
Y159854*
Y169854D02*
X164356D01*
Y161354*
X155856*
Y169854*
Y237965D02*
X164356D01*
Y229465*
X155856*
Y237965*
Y247965D02*
X164356D01*
Y239465*
X155856*
Y247965*
Y267965D02*
X164356D01*
Y259465*
X155856*
Y267965*
Y277965D02*
X164356D01*
Y269465*
X155856*
Y277965*
Y287965D02*
X164356D01*
Y279465*
X155856*
Y287965*
X164356Y249965D02*
Y249465D01*
X155856*
Y257965*
X164356*
Y257465*
X195856*
Y257965*
X204356*
Y249465*
X195856*
Y249965*
X164356*
X173854Y177602D02*
G75*
G02X171604Y181352I2000J3750D01*
G01*
G75*
G02X179478Y183572I4250*
G01*
Y191350*
X187978*
Y182850*
X179831*
G75*
G02X177854Y177602I-3977J-1498*
G01*
Y143982*
X183728*
G75*
G02X185728Y141982J-2000*
G01*
Y129287*
G75*
G02X187378Y126234I-2000J-3053*
G01*
G75*
G02X180078I-3650*
G01*
G75*
G02X181728Y129287I3650*
G01*
Y139982*
X175854*
G75*
G02X173854Y141982J2000*
G01*
Y177602*
X179478Y201350D02*
X187978D01*
Y192850*
X179478*
Y201350*
X197978Y182850D02*
X189478D01*
Y191350*
X197978*
Y182850*
Y192850D02*
X189478D01*
Y201350*
X197978*
Y192850*
X203100Y320957D02*
X211600D01*
Y312457*
X203100*
Y320957*
Y330957D02*
X211600D01*
Y322457*
X203100*
Y330957*
Y340957D02*
X211600D01*
Y332457*
X203100*
Y340957*
Y350957D02*
X211600D01*
Y342457*
X203100*
Y350957*
X203700Y134108D02*
G75*
G02X211000I3650D01*
G01*
G75*
G02X203700I-3650*
G01*
X204356Y229465D02*
X195856D01*
Y237965*
X204356*
Y229465*
Y239465D02*
X195856D01*
Y247965*
X204356*
Y239465*
Y259465D02*
X195856D01*
Y267965*
X204356*
Y259465*
Y269465D02*
X195856D01*
Y277965*
X204356*
Y269465*
Y279465D02*
X195856D01*
Y287965*
X204356*
Y279465*
X211574Y263715D02*
G75*
G02X218874I3650D01*
G01*
G75*
G02X211574I-3650*
G01*
X224356Y21354D02*
X215856D01*
Y29854*
X224356*
Y21354*
Y31354D02*
X215856D01*
Y39854*
X224356*
Y31354*
Y41354D02*
X215856D01*
Y49854*
X224356*
Y41354*
Y51354D02*
X215856D01*
Y59854*
X224356*
Y51354*
Y61354D02*
X215856D01*
Y69854*
X224356*
Y61354*
Y71354D02*
X215856D01*
Y79854*
X224356*
Y71354*
Y81354D02*
X215856D01*
Y89854*
X224356*
Y81354*
Y91354D02*
X215856D01*
Y99854*
X224356*
Y91354*
Y101354D02*
X215856D01*
Y109854*
X224356*
Y101354*
Y111354D02*
X215856D01*
Y119854*
X224356*
Y111354*
Y121354D02*
X215856D01*
Y129854*
X224356*
Y121354*
Y131354D02*
X215856D01*
Y139854*
X224356*
Y131354*
Y141354D02*
X215856D01*
Y149854*
X224356*
Y141354*
Y151354D02*
X215856D01*
Y159854*
X224356*
Y151354*
Y161354D02*
X215856D01*
Y169854*
X224356*
Y161354*
X227348Y310961D02*
X218848D01*
Y319461*
X227348*
Y310961*
Y320961D02*
X218848D01*
Y329461*
X227348*
Y320961*
Y330961D02*
X218848D01*
Y339461*
X227348*
Y330961*
Y340961D02*
X218848D01*
Y349461*
X227348*
Y340961*
X235196Y204974D02*
G75*
G02X242496I3650D01*
G01*
G75*
G02X235196I-3650*
G01*
Y263715D02*
G75*
G02X242496I3650D01*
G01*
G75*
G02X235196I-3650*
G01*
X13000Y24482D02*
G36*
Y10624D01*
X248157*
Y24482*
X224356*
Y21354*
X215856*
Y24482*
X164356*
Y21354*
X155856*
Y24482*
X122250*
Y20232*
X113750*
Y24482*
X112250*
Y20232*
X103750*
Y24482*
X102250*
Y20232*
X93750*
Y24482*
X92250*
Y20232*
X83750*
Y24482*
X82250*
Y20232*
X73750*
Y24482*
X72250*
Y20232*
X63750*
Y24482*
X62250*
Y20232*
X53750*
Y24482*
X52250*
Y20232*
X43750*
Y24482*
X13000*
G37*
X43750D02*
G36*
Y28732D01*
X52250*
Y24482*
X53750*
Y28732*
X62250*
Y24482*
X63750*
Y28732*
X72250*
Y24482*
X73750*
Y28732*
X82250*
Y24482*
X83750*
Y28732*
X92250*
Y24482*
X93750*
Y28732*
X102250*
Y24482*
X103750*
Y28732*
X112250*
Y24482*
X113750*
Y28732*
X122250*
Y24482*
X155856*
Y29854*
X164356*
Y24482*
X215856*
Y29854*
X224356*
Y24482*
X248157*
Y35604*
X224356*
Y31354*
X215856*
Y35604*
X164356*
Y31354*
X155856*
Y35604*
X13000*
Y24482*
X43750*
G37*
X13000Y134482D02*
G36*
Y125604D01*
X155856*
Y129854*
X164356*
Y125604*
X180133*
G75*
G02X180078Y126234I3595J630*
G01*
G75*
G02X181728Y129287I3650*
G01*
Y134482*
X164356*
Y131354*
X155856*
Y134482*
X122250*
Y130232*
X113750*
Y134482*
X112250*
Y130232*
X103750*
Y134482*
X102250*
Y130232*
X93750*
Y134482*
X92250*
Y130232*
X83750*
Y134482*
X82250*
Y130232*
X73750*
Y134482*
X72250*
Y130232*
X63750*
Y134482*
X62250*
Y130232*
X53750*
Y134482*
X52250*
Y130232*
X43750*
Y134482*
X13000*
G37*
X43750D02*
G36*
Y138732D01*
X52250*
Y134482*
X53750*
Y138732*
X62250*
Y134482*
X63750*
Y138732*
X72250*
Y134482*
X73750*
Y138732*
X82250*
Y134482*
X83750*
Y138732*
X92250*
Y134482*
X93750*
Y138732*
X102250*
Y134482*
X103750*
Y138732*
X112250*
Y134482*
X113750*
Y138732*
X122250*
Y134482*
X155856*
Y139854*
X164356*
Y134482*
X181728*
Y139982*
X175854*
G75*
G02X173854Y141982J2000*
G01*
Y145604*
X164356*
Y141354*
X155856*
Y145604*
X13000*
Y134482*
X43750*
G37*
X185728D02*
G36*
Y129287D01*
G75*
G02X187378Y126234I-2000J-3053*
G01*
G75*
G02X187324Y125604I-3650J0*
G01*
X215856*
Y129854*
X224356*
Y125604*
X248157*
Y134482*
X224356*
Y131354*
X215856*
Y134482*
X210981*
G75*
G02X211000Y134108I-3631J-375*
G01*
G75*
G02X203700I-3650*
G01*
G75*
G02X203720Y134482I3650J-1*
G01*
X185728*
G37*
X203720D02*
G36*
G75*
G02X210981I3631J-374D01*
G01*
X215856*
Y139854*
X224356*
Y134482*
X248157*
Y145604*
X224356*
Y141354*
X215856*
Y145604*
X177854*
Y143982*
X183728*
G75*
G02X185728Y141982J-2000*
G01*
Y134482*
X203720*
G37*
X13000Y199482D02*
G36*
Y189482D01*
X131250*
Y193732*
X139750*
Y189482*
X179478*
Y191350*
X187978*
Y189482*
X189478*
Y191350*
X197978*
Y189482*
X248157*
Y199482*
X197978*
Y192850*
X189478*
Y199482*
X187978*
Y192850*
X179478*
Y199482*
X139750*
Y195232*
X131250*
Y199482*
X129750*
Y195232*
X121250*
Y199482*
X13000*
G37*
X121250D02*
G36*
Y203732D01*
X129750*
Y199482*
X131250*
Y203732*
X139750*
Y199482*
X179478*
Y201350*
X187978*
Y199482*
X189478*
Y201350*
X197978*
Y199482*
X248157*
Y204974*
X242496*
G75*
G02X235196I-3650*
G01*
X13000*
Y199482*
X121250*
G37*
X13000Y209482D02*
G36*
Y204974D01*
X235196*
G75*
G02X242496I3650*
G01*
X248157*
Y209482*
X148008*
G75*
G02X140708I-3650*
G01*
X139750*
Y205232*
X131250*
Y209482*
X129750*
Y205232*
X121250*
Y209482*
X13000*
G37*
X121250D02*
G36*
Y213732D01*
X129750*
Y209482*
X131250*
Y213732*
X139750*
Y209482*
X140708*
G75*
G02X148008I3650*
G01*
X248157*
Y219482*
X139750*
Y215232*
X131250*
Y219482*
X129750*
Y215232*
X121250*
Y219482*
X13000*
Y209482*
X121250*
G37*
Y219482D02*
G36*
Y223732D01*
X129750*
Y219482*
X131250*
Y223732*
X139750*
Y219482*
X248157*
Y229482*
X204356*
Y229465*
X195856*
Y229482*
X164356*
Y229465*
X155856*
Y229482*
X139750*
Y225232*
X131250*
Y229482*
X129750*
Y225232*
X121250*
Y229482*
X13000*
Y219482*
X121250*
G37*
Y229482D02*
G36*
Y233732D01*
X129750*
Y229482*
X131250*
Y233732*
X139750*
Y229482*
X155856*
Y237965*
X164356*
Y229482*
X195856*
Y237965*
X204356*
Y229482*
X248157*
Y239482*
X204356*
Y239465*
X195856*
Y239482*
X164356*
Y239465*
X155856*
Y239482*
X139750*
Y235232*
X131250*
Y239482*
X129750*
Y235232*
X121250*
Y239482*
X13000*
Y229482*
X121250*
G37*
Y239482D02*
G36*
Y243732D01*
X129750*
Y239482*
X131250*
Y243732*
X139750*
Y239482*
X155856*
Y247965*
X164356*
Y239482*
X195856*
Y247965*
X204356*
Y239482*
X248157*
Y249482*
X204356*
Y249465*
X195856*
Y249965*
X164356*
Y249465*
X155856*
Y249482*
X139750*
Y245232*
X131250*
Y249482*
X129750*
Y245232*
X121250*
Y249482*
X13000*
Y239482*
X121250*
G37*
Y249482D02*
G36*
Y253732D01*
X129750*
Y249482*
X131250*
Y253732*
X139750*
Y249482*
X155856*
Y257965*
X164356*
Y257465*
X195856*
Y257965*
X204356*
Y249482*
X248157*
Y259482*
X204356*
Y259465*
X195856*
Y259482*
X164356*
Y259465*
X155856*
Y259482*
X139750*
Y255232*
X131250*
Y259482*
X129750*
Y255232*
X121250*
Y259482*
X13000*
Y249482*
X121250*
G37*
Y259482D02*
G36*
Y263715D01*
X13000*
Y259482*
X121250*
G37*
X131250D02*
G36*
Y263715D01*
X129750*
Y259482*
X131250*
G37*
X155856D02*
G36*
Y263715D01*
X139750*
Y259482*
X155856*
G37*
X195856D02*
G36*
Y263715D01*
X164356*
Y259482*
X195856*
G37*
X248157D02*
G36*
Y263715D01*
X242496*
G75*
G02X235196I-3650*
G01*
X218874*
G75*
G02X211574I-3650*
G01*
X204356*
Y259482*
X248157*
G37*
X13000Y269482D02*
G36*
Y263715D01*
X121250*
Y263732*
X129750*
Y263715*
X131250*
Y263732*
X139750*
Y263715*
X155856*
Y267965*
X164356*
Y263715*
X195856*
Y267965*
X204356*
Y263715*
X211574*
G75*
G02X218874I3650*
G01*
X235196*
G75*
G02X242496I3650*
G01*
X248157*
Y269482*
X204356*
Y269465*
X195856*
Y269482*
X164356*
Y269465*
X155856*
Y269482*
X139750*
Y265232*
X131250*
Y269482*
X129750*
Y265232*
X121250*
Y269482*
X13000*
G37*
X121250D02*
G36*
Y273732D01*
X129750*
Y269482*
X131250*
Y273732*
X139750*
Y269482*
X155856*
Y277965*
X164356*
Y269482*
X195856*
Y277965*
X204356*
Y269482*
X248157*
Y279482*
X204356*
Y279465*
X195856*
Y279482*
X164356*
Y279465*
X155856*
Y279482*
X139750*
Y275232*
X131250*
Y279482*
X129750*
Y275232*
X121250*
Y279482*
X13000*
Y269482*
X121250*
G37*
Y279482D02*
G36*
Y283732D01*
X129750*
Y279482*
X131250*
Y283732*
X139750*
Y279482*
X155856*
Y287965*
X164356*
Y279482*
X195856*
Y287965*
X204356*
Y279482*
X248157*
Y316707*
X227348*
Y310961*
X218848*
Y316707*
X211600*
Y312457*
X203100*
Y316707*
X13000*
Y279482*
X121250*
G37*
X13000Y79482D02*
G36*
Y65604D01*
X155856*
Y69854*
X164356*
Y65604*
X215856*
Y69854*
X224356*
Y65604*
X248157*
Y79482*
X224356*
Y71354*
X215856*
Y79482*
X164356*
Y71354*
X155856*
Y79482*
X142250*
G75*
G02X133750I-4250*
G01*
X13000*
G37*
X133750D02*
G36*
G75*
G02X142250I4250D01*
G01*
X155856*
Y79854*
X164356*
Y79482*
X215856*
Y79854*
X224356*
Y79482*
X248157*
Y85604*
X224356*
Y81354*
X215856*
Y85604*
X164356*
Y81354*
X155856*
Y85604*
X13000*
Y79482*
X133750*
G37*
X13000Y189482D02*
G36*
Y165604D01*
X155856*
Y169854*
X164356*
Y165604*
X173854*
Y177602*
G75*
G02X171604Y181352I2000J3750*
G01*
G75*
G02X179478Y183572I4250*
G01*
Y189482*
X139750*
Y185232*
X131250*
Y189482*
X13000*
G37*
X187978D02*
G36*
Y182850D01*
X179831*
G75*
G02X177854Y177602I-3977J-1498*
G01*
Y165604*
X215856*
Y169854*
X224356*
Y165604*
X248157*
Y189482*
X197978*
Y182850*
X189478*
Y189482*
X187978*
G37*
X155856Y35604D02*
G36*
Y39854D01*
X164356*
Y35604*
X215856*
Y39854*
X224356*
Y35604*
X248157*
Y45604*
X224356*
Y41354*
X215856*
Y45604*
X164356*
Y41354*
X155856*
Y45604*
X13000*
Y35604*
X155856*
G37*
Y45604D02*
G36*
Y49854D01*
X164356*
Y45604*
X215856*
Y49854*
X224356*
Y45604*
X248157*
Y55604*
X224356*
Y51354*
X215856*
Y55604*
X164356*
Y51354*
X155856*
Y55604*
X13000*
Y45604*
X155856*
G37*
Y55604D02*
G36*
Y59854D01*
X164356*
Y55604*
X215856*
Y59854*
X224356*
Y55604*
X248157*
Y65604*
X224356*
Y61354*
X215856*
Y65604*
X164356*
Y61354*
X155856*
Y65604*
X13000*
Y55604*
X155856*
G37*
Y85604D02*
G36*
Y89854D01*
X164356*
Y85604*
X215856*
Y89854*
X224356*
Y85604*
X248157*
Y95604*
X224356*
Y91354*
X215856*
Y95604*
X164356*
Y91354*
X155856*
Y95604*
X13000*
Y85604*
X155856*
G37*
Y95604D02*
G36*
Y99854D01*
X164356*
Y95604*
X215856*
Y99854*
X224356*
Y95604*
X248157*
Y105604*
X224356*
Y101354*
X215856*
Y105604*
X164356*
Y101354*
X155856*
Y105604*
X13000*
Y95604*
X155856*
G37*
Y105604D02*
G36*
Y109854D01*
X164356*
Y105604*
X215856*
Y109854*
X224356*
Y105604*
X248157*
Y115604*
X224356*
Y111354*
X215856*
Y115604*
X164356*
Y111354*
X155856*
Y115604*
X13000*
Y105604*
X155856*
G37*
Y115604D02*
G36*
Y119854D01*
X164356*
Y115604*
X215856*
Y119854*
X224356*
Y115604*
X248157*
Y125604*
X224356*
Y121354*
X215856*
Y125604*
X187324*
G75*
G02X180133I-3595J630*
G01*
X164356*
Y121354*
X155856*
Y125604*
X13000*
Y115604*
X155856*
G37*
Y145604D02*
G36*
Y149854D01*
X164356*
Y145604*
X173854*
Y155604*
X164356*
Y151354*
X155856*
Y155604*
X13000*
Y145604*
X155856*
G37*
X215856D02*
G36*
Y149854D01*
X224356*
Y145604*
X248157*
Y155604*
X224356*
Y151354*
X215856*
Y155604*
X177854*
Y145604*
X215856*
G37*
X155856Y155604D02*
G36*
Y159854D01*
X164356*
Y155604*
X173854*
Y165604*
X164356*
Y161354*
X155856*
Y165604*
X13000*
Y155604*
X155856*
G37*
X215856D02*
G36*
Y159854D01*
X224356*
Y155604*
X248157*
Y165604*
X224356*
Y161354*
X215856*
Y165604*
X177854*
Y155604*
X215856*
G37*
X203100Y316707D02*
G36*
Y320957D01*
X211600*
Y316707*
X218848*
Y319461*
X227348*
Y316707*
X248157*
Y326707*
X227348*
Y320961*
X218848*
Y326707*
X211600*
Y322457*
X203100*
Y326707*
X13000*
Y316707*
X203100*
G37*
Y326707D02*
G36*
Y330957D01*
X211600*
Y326707*
X218848*
Y329461*
X227348*
Y326707*
X248157*
Y336707*
X227348*
Y330961*
X218848*
Y336707*
X211600*
Y332457*
X203100*
Y336707*
X13000*
Y326707*
X203100*
G37*
Y336707D02*
G36*
Y340957D01*
X211600*
Y336707*
X218848*
Y339461*
X227348*
Y336707*
X248157*
Y346707*
X227348*
Y340961*
X218848*
Y346707*
X211600*
Y342457*
X203100*
Y346707*
X13000*
Y336707*
X203100*
G37*
Y346707D02*
G36*
Y350957D01*
X211600*
Y346707*
X218848*
Y349461*
X227348*
Y346707*
X248157*
Y367829*
X13000*
Y346707*
X203100*
G37*
D02*
D11*
X115500Y24482D02*
X113500D01*
X118000Y21982D02*
Y19982D01*
Y26982D02*
Y28982D01*
X120500Y24482D02*
X122500D01*
X133000Y209482D02*
X131000D01*
X135500Y206982D02*
Y204982D01*
Y211982D02*
Y213982D01*
X138000Y209482D02*
X140000D01*
X142458D02*
X140458D01*
X144358Y207582D02*
Y205582D01*
Y211382D02*
Y213382D01*
X146258Y209482D02*
X148258D01*
X197606Y263715D02*
X195606D01*
X200106Y261215D02*
Y259215D01*
Y266215D02*
Y268215D01*
X202606Y263715D02*
X204606D01*
X204850Y346707D02*
X202850D01*
X205450Y134108D02*
X203450D01*
X207350Y132208D02*
Y130208D01*
Y136008D02*
Y138008D01*
Y344207D02*
Y342207D01*
Y349207D02*
Y351207D01*
X209250Y134108D02*
X211250D01*
X209850Y346707D02*
X211850D01*
X213324Y263715D02*
X211324D01*
X215224Y261815D02*
Y259815D01*
Y265615D02*
Y267615D01*
X217124Y263715D02*
X219124D01*
X217606Y135604D02*
X215606D01*
X220106Y133104D02*
Y131104D01*
Y138104D02*
Y140104D01*
X220598Y345211D02*
X218598D01*
X222606Y135604D02*
X224606D01*
X223098Y342711D02*
Y340711D01*
Y347711D02*
Y349711D01*
X225598Y345211D02*
X227598D01*
X236946Y204974D02*
X234946D01*
X236946Y263715D02*
X234946D01*
X238846Y203074D02*
Y201074D01*
Y206874D02*
Y208874D01*
Y261815D02*
Y259815D01*
Y265615D02*
Y267615D01*
X240746Y204974D02*
X242746D01*
X240746Y263715D02*
X242746D01*
D02*
D12*
X138000Y79482D03*
X175854Y181352D03*
D02*
D13*
X125500Y199482D03*
Y209482D03*
Y219482D03*
Y229482D03*
Y239482D03*
Y249482D03*
Y259482D03*
Y269482D03*
Y279482D03*
X135500Y189482D03*
Y199482D03*
Y209482D03*
Y219482D03*
Y229482D03*
Y239482D03*
Y249482D03*
Y259482D03*
Y269482D03*
Y279482D03*
X160106Y25604D03*
Y35604D03*
Y45604D03*
Y55604D03*
Y65604D03*
Y75604D03*
Y85604D03*
Y95604D03*
Y105604D03*
Y115604D03*
Y125604D03*
Y135604D03*
Y145604D03*
Y155604D03*
Y165604D03*
Y233715D03*
Y243715D03*
Y253715D03*
Y263715D03*
Y273715D03*
Y283715D03*
X183728Y187100D03*
Y197100D03*
X193728Y187100D03*
Y197100D03*
X200106Y233715D03*
Y243715D03*
Y253715D03*
Y263715D03*
Y273715D03*
Y283715D03*
X220106Y25604D03*
Y35604D03*
Y45604D03*
Y55604D03*
Y65604D03*
Y75604D03*
Y85604D03*
Y95604D03*
Y105604D03*
Y115604D03*
Y125604D03*
Y135604D03*
Y145604D03*
Y155604D03*
Y165604D03*
D02*
D14*
X48000Y24482D03*
Y134482D03*
X58000Y24482D03*
Y134482D03*
X68000Y24482D03*
Y134482D03*
X78000Y24482D03*
Y134482D03*
X88000Y24482D03*
Y134482D03*
X98000Y24482D03*
Y134482D03*
X108000Y24482D03*
Y134482D03*
X118000Y24482D03*
Y134482D03*
D02*
D15*
X207350Y316707D03*
Y326707D03*
Y336707D03*
Y346707D03*
X223098Y315211D03*
Y325211D03*
Y335211D03*
Y345211D03*
D02*
D16*
X160106Y253715D02*
X200106D01*
D02*
D17*
X144358Y209482D03*
X183728Y126234D03*
X207350Y134108D03*
X215224Y263715D03*
X238846Y204974D03*
Y263715D03*
D02*
D18*
X144358Y209482D02*
X207350D01*
Y204974*
X175854Y181352D02*
Y141982D01*
X183728*
Y126234*
X207350Y204974D02*
Y134108D01*
X215224Y263715D02*
X238846D01*
Y204974D02*
X207350D01*
X0Y0D02*
M02*
