%FSLAX35Y35*%
%MOIN*%
G04 EasyPC Gerber Version 18.0.8 Build 3632 *
%ADD10C,0.00500*%
%ADD70C,0.10000*%
X0Y0D02*
D02*
D10*
X60187Y32295D02*
X60813Y31982D01*
X61125Y31357*
X60813Y30732*
X60187Y30420*
X58000*
Y34170*
X60187*
X60813Y33857*
X61125Y33232*
X60813Y32607*
X60187Y32295*
X58000*
X60187Y142295D02*
X60813Y141982D01*
X61125Y141357*
X60813Y140732*
X60187Y140420*
X58000*
Y144170*
X60187*
X60813Y143857*
X61125Y143232*
X60813Y142607*
X60187Y142295*
X58000*
X70187Y32295D02*
X70813Y31982D01*
X71125Y31357*
X70813Y30732*
X70187Y30420*
X68000*
Y34170*
X70187*
X70813Y33857*
X71125Y33232*
X70813Y32607*
X70187Y32295*
X68000*
X70187Y142295D02*
X70813Y141982D01*
X71125Y141357*
X70813Y140732*
X70187Y140420*
X68000*
Y144170*
X70187*
X70813Y143857*
X71125Y143232*
X70813Y142607*
X70187Y142295*
X68000*
X80187Y32295D02*
X80813Y31982D01*
X81125Y31357*
X80813Y30732*
X80187Y30420*
X78000*
Y34170*
X80187*
X80813Y33857*
X81125Y33232*
X80813Y32607*
X80187Y32295*
X78000*
X80187Y142295D02*
X80813Y141982D01*
X81125Y141357*
X80813Y140732*
X80187Y140420*
X78000*
Y144170*
X80187*
X80813Y143857*
X81125Y143232*
X80813Y142607*
X80187Y142295*
X78000*
X90187Y32295D02*
X90813Y31982D01*
X91125Y31357*
X90813Y30732*
X90187Y30420*
X88000*
Y34170*
X90187*
X90813Y33857*
X91125Y33232*
X90813Y32607*
X90187Y32295*
X88000*
X90187Y142295D02*
X90813Y141982D01*
X91125Y141357*
X90813Y140732*
X90187Y140420*
X88000*
Y144170*
X90187*
X90813Y143857*
X91125Y143232*
X90813Y142607*
X90187Y142295*
X88000*
X100187Y32295D02*
X100813Y31982D01*
X101125Y31357*
X100813Y30732*
X100187Y30420*
X98000*
Y34170*
X100187*
X100813Y33857*
X101125Y33232*
X100813Y32607*
X100187Y32295*
X98000*
X100187Y142295D02*
X100813Y141982D01*
X101125Y141357*
X100813Y140732*
X100187Y140420*
X98000*
Y144170*
X100187*
X100813Y143857*
X101125Y143232*
X100813Y142607*
X100187Y142295*
X98000*
X110187Y32295D02*
X110813Y31982D01*
X111125Y31357*
X110813Y30732*
X110187Y30420*
X108000*
Y34170*
X110187*
X110813Y33857*
X111125Y33232*
X110813Y32607*
X110187Y32295*
X108000*
X110187Y142295D02*
X110813Y141982D01*
X111125Y141357*
X110813Y140732*
X110187Y140420*
X108000*
Y144170*
X110187*
X110813Y143857*
X111125Y143232*
X110813Y142607*
X110187Y142295*
X108000*
X120187Y32295D02*
X120813Y31982D01*
X121125Y31357*
X120813Y30732*
X120187Y30420*
X118000*
Y34170*
X120187*
X120813Y33857*
X121125Y33232*
X120813Y32607*
X120187Y32295*
X118000*
X120187Y142295D02*
X120813Y141982D01*
X121125Y141357*
X120813Y140732*
X120187Y140420*
X118000*
Y144170*
X120187*
X120813Y143857*
X121125Y143232*
X120813Y142607*
X120187Y142295*
X118000*
X130187Y32295D02*
X130813Y31982D01*
X131125Y31357*
X130813Y30732*
X130187Y30420*
X128000*
Y34170*
X130187*
X130813Y33857*
X131125Y33232*
X130813Y32607*
X130187Y32295*
X128000*
X130187Y142295D02*
X130813Y141982D01*
X131125Y141357*
X130813Y140732*
X130187Y140420*
X128000*
Y144170*
X130187*
X130813Y143857*
X131125Y143232*
X130813Y142607*
X130187Y142295*
X128000*
X137687Y207295D02*
X138313Y206982D01*
X138625Y206357*
X138313Y205732*
X137687Y205420*
X135500*
Y209170*
X137687*
X138313Y208857*
X138625Y208232*
X138313Y207607*
X137687Y207295*
X135500*
X137687Y217295D02*
X138313Y216982D01*
X138625Y216357*
X138313Y215732*
X137687Y215420*
X135500*
Y219170*
X137687*
X138313Y218857*
X138625Y218232*
X138313Y217607*
X137687Y217295*
X135500*
X137687Y227295D02*
X138313Y226982D01*
X138625Y226357*
X138313Y225732*
X137687Y225420*
X135500*
Y229170*
X137687*
X138313Y228857*
X138625Y228232*
X138313Y227607*
X137687Y227295*
X135500*
X137687Y237295D02*
X138313Y236982D01*
X138625Y236357*
X138313Y235732*
X137687Y235420*
X135500*
Y239170*
X137687*
X138313Y238857*
X138625Y238232*
X138313Y237607*
X137687Y237295*
X135500*
X137687Y247295D02*
X138313Y246982D01*
X138625Y246357*
X138313Y245732*
X137687Y245420*
X135500*
Y249170*
X137687*
X138313Y248857*
X138625Y248232*
X138313Y247607*
X137687Y247295*
X135500*
X137687Y257295D02*
X138313Y256982D01*
X138625Y256357*
X138313Y255732*
X137687Y255420*
X135500*
Y259170*
X137687*
X138313Y258857*
X138625Y258232*
X138313Y257607*
X137687Y257295*
X135500*
X137687Y267295D02*
X138313Y266982D01*
X138625Y266357*
X138313Y265732*
X137687Y265420*
X135500*
Y269170*
X137687*
X138313Y268857*
X138625Y268232*
X138313Y267607*
X137687Y267295*
X135500*
X137687Y277295D02*
X138313Y276982D01*
X138625Y276357*
X138313Y275732*
X137687Y275420*
X135500*
Y279170*
X137687*
X138313Y278857*
X138625Y278232*
X138313Y277607*
X137687Y277295*
X135500*
X137687Y287295D02*
X138313Y286982D01*
X138625Y286357*
X138313Y285732*
X137687Y285420*
X135500*
Y289170*
X137687*
X138313Y288857*
X138625Y288232*
X138313Y287607*
X137687Y287295*
X135500*
X147687Y197295D02*
X148313Y196982D01*
X148625Y196357*
X148313Y195732*
X147687Y195420*
X145500*
Y199170*
X147687*
X148313Y198857*
X148625Y198232*
X148313Y197607*
X147687Y197295*
X145500*
X147687Y207295D02*
X148313Y206982D01*
X148625Y206357*
X148313Y205732*
X147687Y205420*
X145500*
Y209170*
X147687*
X148313Y208857*
X148625Y208232*
X148313Y207607*
X147687Y207295*
X145500*
X147687Y217295D02*
X148313Y216982D01*
X148625Y216357*
X148313Y215732*
X147687Y215420*
X145500*
Y219170*
X147687*
X148313Y218857*
X148625Y218232*
X148313Y217607*
X147687Y217295*
X145500*
X147687Y227295D02*
X148313Y226982D01*
X148625Y226357*
X148313Y225732*
X147687Y225420*
X145500*
Y229170*
X147687*
X148313Y228857*
X148625Y228232*
X148313Y227607*
X147687Y227295*
X145500*
X147687Y237295D02*
X148313Y236982D01*
X148625Y236357*
X148313Y235732*
X147687Y235420*
X145500*
Y239170*
X147687*
X148313Y238857*
X148625Y238232*
X148313Y237607*
X147687Y237295*
X145500*
X147687Y247295D02*
X148313Y246982D01*
X148625Y246357*
X148313Y245732*
X147687Y245420*
X145500*
Y249170*
X147687*
X148313Y248857*
X148625Y248232*
X148313Y247607*
X147687Y247295*
X145500*
X147687Y257295D02*
X148313Y256982D01*
X148625Y256357*
X148313Y255732*
X147687Y255420*
X145500*
Y259170*
X147687*
X148313Y258857*
X148625Y258232*
X148313Y257607*
X147687Y257295*
X145500*
X147687Y267295D02*
X148313Y266982D01*
X148625Y266357*
X148313Y265732*
X147687Y265420*
X145500*
Y269170*
X147687*
X148313Y268857*
X148625Y268232*
X148313Y267607*
X147687Y267295*
X145500*
X147687Y277295D02*
X148313Y276982D01*
X148625Y276357*
X148313Y275732*
X147687Y275420*
X145500*
Y279170*
X147687*
X148313Y278857*
X148625Y278232*
X148313Y277607*
X147687Y277295*
X145500*
X147687Y287295D02*
X148313Y286982D01*
X148625Y286357*
X148313Y285732*
X147687Y285420*
X145500*
Y289170*
X147687*
X148313Y288857*
X148625Y288232*
X148313Y287607*
X147687Y287295*
X145500*
X148000Y85420D02*
X149563Y89170D01*
X151125Y85420*
X148625Y86982D02*
X150500D01*
X157483Y216045D02*
X157171Y215732D01*
X156546Y215420*
X155608*
X154983Y215732*
X154671Y216045*
X154358Y216670*
Y217920*
X154671Y218545*
X154983Y218857*
X155608Y219170*
X156546*
X157171Y218857*
X157483Y218545*
X172294Y33417D02*
X172919Y33104D01*
X173231Y32480*
X172919Y31854*
X172294Y31542*
X170106*
Y35292*
X172294*
X172919Y34980*
X173231Y34354*
X172919Y33730*
X172294Y33417*
X170106*
X172294Y43417D02*
X172919Y43104D01*
X173231Y42480*
X172919Y41854*
X172294Y41542*
X170106*
Y45292*
X172294*
X172919Y44980*
X173231Y44354*
X172919Y43730*
X172294Y43417*
X170106*
X172294Y53417D02*
X172919Y53104D01*
X173231Y52480*
X172919Y51854*
X172294Y51542*
X170106*
Y55292*
X172294*
X172919Y54980*
X173231Y54354*
X172919Y53730*
X172294Y53417*
X170106*
X172294Y63417D02*
X172919Y63104D01*
X173231Y62480*
X172919Y61854*
X172294Y61542*
X170106*
Y65292*
X172294*
X172919Y64980*
X173231Y64354*
X172919Y63730*
X172294Y63417*
X170106*
X172294Y73417D02*
X172919Y73104D01*
X173231Y72480*
X172919Y71854*
X172294Y71542*
X170106*
Y75292*
X172294*
X172919Y74980*
X173231Y74354*
X172919Y73730*
X172294Y73417*
X170106*
X172294Y83417D02*
X172919Y83104D01*
X173231Y82480*
X172919Y81854*
X172294Y81542*
X170106*
Y85292*
X172294*
X172919Y84980*
X173231Y84354*
X172919Y83730*
X172294Y83417*
X170106*
X172294Y93417D02*
X172919Y93104D01*
X173231Y92480*
X172919Y91854*
X172294Y91542*
X170106*
Y95292*
X172294*
X172919Y94980*
X173231Y94354*
X172919Y93730*
X172294Y93417*
X170106*
X172294Y103417D02*
X172919Y103104D01*
X173231Y102480*
X172919Y101854*
X172294Y101542*
X170106*
Y105292*
X172294*
X172919Y104980*
X173231Y104354*
X172919Y103730*
X172294Y103417*
X170106*
X172294Y113417D02*
X172919Y113104D01*
X173231Y112480*
X172919Y111854*
X172294Y111542*
X170106*
Y115292*
X172294*
X172919Y114980*
X173231Y114354*
X172919Y113730*
X172294Y113417*
X170106*
X172294Y123417D02*
X172919Y123104D01*
X173231Y122480*
X172919Y121854*
X172294Y121542*
X170106*
Y125292*
X172294*
X172919Y124980*
X173231Y124354*
X172919Y123730*
X172294Y123417*
X170106*
X172294Y133417D02*
X172919Y133104D01*
X173231Y132480*
X172919Y131854*
X172294Y131542*
X170106*
Y135292*
X172294*
X172919Y134980*
X173231Y134354*
X172919Y133730*
X172294Y133417*
X170106*
X172294Y143417D02*
X172919Y143104D01*
X173231Y142480*
X172919Y141854*
X172294Y141542*
X170106*
Y145292*
X172294*
X172919Y144980*
X173231Y144354*
X172919Y143730*
X172294Y143417*
X170106*
X172294Y153417D02*
X172919Y153104D01*
X173231Y152480*
X172919Y151854*
X172294Y151542*
X170106*
Y155292*
X172294*
X172919Y154980*
X173231Y154354*
X172919Y153730*
X172294Y153417*
X170106*
X172294Y163417D02*
X172919Y163104D01*
X173231Y162480*
X172919Y161854*
X172294Y161542*
X170106*
Y165292*
X172294*
X172919Y164980*
X173231Y164354*
X172919Y163730*
X172294Y163417*
X170106*
X172294Y173417D02*
X172919Y173104D01*
X173231Y172480*
X172919Y171854*
X172294Y171542*
X170106*
Y175292*
X172294*
X172919Y174980*
X173231Y174354*
X172919Y173730*
X172294Y173417*
X170106*
X172294Y241527D02*
X172919Y241215D01*
X173231Y240590*
X172919Y239965*
X172294Y239652*
X170106*
Y243402*
X172294*
X172919Y243090*
X173231Y242465*
X172919Y241840*
X172294Y241527*
X170106*
X172294Y251527D02*
X172919Y251215D01*
X173231Y250590*
X172919Y249965*
X172294Y249652*
X170106*
Y253402*
X172294*
X172919Y253090*
X173231Y252465*
X172919Y251840*
X172294Y251527*
X170106*
X172294Y261527D02*
X172919Y261215D01*
X173231Y260590*
X172919Y259965*
X172294Y259652*
X170106*
Y263402*
X172294*
X172919Y263090*
X173231Y262465*
X172919Y261840*
X172294Y261527*
X170106*
X172294Y271527D02*
X172919Y271215D01*
X173231Y270590*
X172919Y269965*
X172294Y269652*
X170106*
Y273402*
X172294*
X172919Y273090*
X173231Y272465*
X172919Y271840*
X172294Y271527*
X170106*
X172294Y281527D02*
X172919Y281215D01*
X173231Y280590*
X172919Y279965*
X172294Y279652*
X170106*
Y283402*
X172294*
X172919Y283090*
X173231Y282465*
X172919Y281840*
X172294Y281527*
X170106*
X172294Y291527D02*
X172919Y291215D01*
X173231Y290590*
X172919Y289965*
X172294Y289652*
X170106*
Y293402*
X172294*
X172919Y293090*
X173231Y292465*
X172919Y291840*
X172294Y291527*
X170106*
X185854Y187290D02*
X187417Y191040D01*
X188980Y187290*
X186480Y188852D02*
X188354D01*
X196854Y132797D02*
X196541Y132484D01*
X195916Y132172*
X194978*
X194354Y132484*
X194041Y132797*
X193728Y133422*
Y134672*
X194041Y135297*
X194354Y135609*
X194978Y135922*
X195916*
X196541Y135609*
X196854Y135297*
X195916Y194913D02*
X196541Y194600D01*
X196854Y193976*
X196541Y193350*
X195916Y193038*
X193728*
Y196788*
X195916*
X196541Y196476*
X196854Y195850*
X196541Y195226*
X195916Y194913*
X193728*
X195916Y204913D02*
X196541Y204600D01*
X196854Y203976*
X196541Y203350*
X195916Y203038*
X193728*
Y206788*
X195916*
X196541Y206476*
X196854Y205850*
X196541Y205226*
X195916Y204913*
X193728*
X205916Y194913D02*
X206541Y194600D01*
X206854Y193976*
X206541Y193350*
X205916Y193038*
X203728*
Y196788*
X205916*
X206541Y196476*
X206854Y195850*
X206541Y195226*
X205916Y194913*
X203728*
X205916Y204913D02*
X206541Y204600D01*
X206854Y203976*
X206541Y203350*
X205916Y203038*
X203728*
Y206788*
X205916*
X206541Y206476*
X206854Y205850*
X206541Y205226*
X205916Y204913*
X203728*
X212294Y241527D02*
X212919Y241215D01*
X213231Y240590*
X212919Y239965*
X212294Y239652*
X210106*
Y243402*
X212294*
X212919Y243090*
X213231Y242465*
X212919Y241840*
X212294Y241527*
X210106*
X212294Y251527D02*
X212919Y251215D01*
X213231Y250590*
X212919Y249965*
X212294Y249652*
X210106*
Y253402*
X212294*
X212919Y253090*
X213231Y252465*
X212919Y251840*
X212294Y251527*
X210106*
X212294Y261527D02*
X212919Y261215D01*
X213231Y260590*
X212919Y259965*
X212294Y259652*
X210106*
Y263402*
X212294*
X212919Y263090*
X213231Y262465*
X212919Y261840*
X212294Y261527*
X210106*
X212294Y271527D02*
X212919Y271215D01*
X213231Y270590*
X212919Y269965*
X212294Y269652*
X210106*
Y273402*
X212294*
X212919Y273090*
X213231Y272465*
X212919Y271840*
X212294Y271527*
X210106*
X212294Y281527D02*
X212919Y281215D01*
X213231Y280590*
X212919Y279965*
X212294Y279652*
X210106*
Y283402*
X212294*
X212919Y283090*
X213231Y282465*
X212919Y281840*
X212294Y281527*
X210106*
X212294Y291527D02*
X212919Y291215D01*
X213231Y290590*
X212919Y289965*
X212294Y289652*
X210106*
Y293402*
X212294*
X212919Y293090*
X213231Y292465*
X212919Y291840*
X212294Y291527*
X210106*
X220476Y140671D02*
X220163Y140358D01*
X219538Y140046*
X218600*
X217976Y140358*
X217663Y140671*
X217350Y141296*
Y142546*
X217663Y143171*
X217976Y143483*
X218600Y143796*
X219538*
X220163Y143483*
X220476Y143171*
X217350Y322644D02*
X218913Y326394D01*
X220476Y322644*
X217976Y324207D02*
X219850D01*
X217350Y332644D02*
X218913Y336394D01*
X220476Y332644*
X217976Y334207D02*
X219850D01*
X217350Y342644D02*
X218913Y346394D01*
X220476Y342644*
X217976Y344207D02*
X219850D01*
X217350Y352644D02*
X218913Y356394D01*
X220476Y352644*
X217976Y354207D02*
X219850D01*
X228350Y270277D02*
X228037Y269965D01*
X227412Y269652*
X226474*
X225850Y269965*
X225537Y270277*
X225224Y270902*
Y272152*
X225537Y272777*
X225850Y273090*
X226474Y273402*
X227412*
X228037Y273090*
X228350Y272777*
X232294Y33417D02*
X232919Y33104D01*
X233231Y32480*
X232919Y31854*
X232294Y31542*
X230106*
Y35292*
X232294*
X232919Y34980*
X233231Y34354*
X232919Y33730*
X232294Y33417*
X230106*
X232294Y43417D02*
X232919Y43104D01*
X233231Y42480*
X232919Y41854*
X232294Y41542*
X230106*
Y45292*
X232294*
X232919Y44980*
X233231Y44354*
X232919Y43730*
X232294Y43417*
X230106*
X232294Y53417D02*
X232919Y53104D01*
X233231Y52480*
X232919Y51854*
X232294Y51542*
X230106*
Y55292*
X232294*
X232919Y54980*
X233231Y54354*
X232919Y53730*
X232294Y53417*
X230106*
X232294Y63417D02*
X232919Y63104D01*
X233231Y62480*
X232919Y61854*
X232294Y61542*
X230106*
Y65292*
X232294*
X232919Y64980*
X233231Y64354*
X232919Y63730*
X232294Y63417*
X230106*
X232294Y73417D02*
X232919Y73104D01*
X233231Y72480*
X232919Y71854*
X232294Y71542*
X230106*
Y75292*
X232294*
X232919Y74980*
X233231Y74354*
X232919Y73730*
X232294Y73417*
X230106*
X232294Y83417D02*
X232919Y83104D01*
X233231Y82480*
X232919Y81854*
X232294Y81542*
X230106*
Y85292*
X232294*
X232919Y84980*
X233231Y84354*
X232919Y83730*
X232294Y83417*
X230106*
X232294Y93417D02*
X232919Y93104D01*
X233231Y92480*
X232919Y91854*
X232294Y91542*
X230106*
Y95292*
X232294*
X232919Y94980*
X233231Y94354*
X232919Y93730*
X232294Y93417*
X230106*
X232294Y103417D02*
X232919Y103104D01*
X233231Y102480*
X232919Y101854*
X232294Y101542*
X230106*
Y105292*
X232294*
X232919Y104980*
X233231Y104354*
X232919Y103730*
X232294Y103417*
X230106*
X232294Y113417D02*
X232919Y113104D01*
X233231Y112480*
X232919Y111854*
X232294Y111542*
X230106*
Y115292*
X232294*
X232919Y114980*
X233231Y114354*
X232919Y113730*
X232294Y113417*
X230106*
X232294Y123417D02*
X232919Y123104D01*
X233231Y122480*
X232919Y121854*
X232294Y121542*
X230106*
Y125292*
X232294*
X232919Y124980*
X233231Y124354*
X232919Y123730*
X232294Y123417*
X230106*
X232294Y133417D02*
X232919Y133104D01*
X233231Y132480*
X232919Y131854*
X232294Y131542*
X230106*
Y135292*
X232294*
X232919Y134980*
X233231Y134354*
X232919Y133730*
X232294Y133417*
X230106*
X232294Y143417D02*
X232919Y143104D01*
X233231Y142480*
X232919Y141854*
X232294Y141542*
X230106*
Y145292*
X232294*
X232919Y144980*
X233231Y144354*
X232919Y143730*
X232294Y143417*
X230106*
X232294Y153417D02*
X232919Y153104D01*
X233231Y152480*
X232919Y151854*
X232294Y151542*
X230106*
Y155292*
X232294*
X232919Y154980*
X233231Y154354*
X232919Y153730*
X232294Y153417*
X230106*
X232294Y163417D02*
X232919Y163104D01*
X233231Y162480*
X232919Y161854*
X232294Y161542*
X230106*
Y165292*
X232294*
X232919Y164980*
X233231Y164354*
X232919Y163730*
X232294Y163417*
X230106*
X232294Y173417D02*
X232919Y173104D01*
X233231Y172480*
X232919Y171854*
X232294Y171542*
X230106*
Y175292*
X232294*
X232919Y174980*
X233231Y174354*
X232919Y173730*
X232294Y173417*
X230106*
X233098Y321148D02*
X234661Y324898D01*
X236224Y321148*
X233724Y322711D02*
X235598D01*
X233098Y331148D02*
X234661Y334898D01*
X236224Y331148*
X233724Y332711D02*
X235598D01*
X233098Y341148D02*
X234661Y344898D01*
X236224Y341148*
X233724Y342711D02*
X235598D01*
X233098Y351148D02*
X234661Y354898D01*
X236224Y351148*
X233724Y352711D02*
X235598D01*
X251972Y211537D02*
X251659Y211224D01*
X251034Y210912*
X250096*
X249472Y211224*
X249159Y211537*
X248846Y212162*
Y213412*
X249159Y214037*
X249472Y214350*
X250096Y214662*
X251034*
X251659Y214350*
X251972Y214037*
Y270277D02*
X251659Y269965D01*
X251034Y269652*
X250096*
X249472Y269965*
X249159Y270277*
X248846Y270902*
Y272152*
X249159Y272777*
X249472Y273090*
X250096Y273402*
X251034*
X251659Y273090*
X251972Y272777*
D02*
D70*
X48000Y24482D03*
Y134482D03*
X58000Y24482D03*
Y134482D03*
X68000Y24482D03*
Y134482D03*
X78000Y24482D03*
Y134482D03*
X88000Y24482D03*
Y134482D03*
X98000Y24482D03*
Y134482D03*
X108000Y24482D03*
Y134482D03*
X118000Y24482D03*
Y134482D03*
X125500Y199482D03*
Y209482D03*
Y219482D03*
Y229482D03*
Y239482D03*
Y249482D03*
Y259482D03*
Y269482D03*
Y279482D03*
X135500Y189482D03*
Y199482D03*
Y209482D03*
Y219482D03*
Y229482D03*
Y239482D03*
Y249482D03*
Y259482D03*
Y269482D03*
Y279482D03*
X138000Y79482D03*
X144358Y209482D03*
X160106Y25604D03*
Y35604D03*
Y45604D03*
Y55604D03*
Y65604D03*
Y75604D03*
Y85604D03*
Y95604D03*
Y105604D03*
Y115604D03*
Y125604D03*
Y135604D03*
Y145604D03*
Y155604D03*
Y165604D03*
Y233715D03*
Y243715D03*
Y253715D03*
Y263715D03*
Y273715D03*
Y283715D03*
X175854Y181352D03*
X183728Y126234D03*
Y187100D03*
Y197100D03*
X193728Y187100D03*
Y197100D03*
X200106Y233715D03*
Y243715D03*
Y253715D03*
Y263715D03*
Y273715D03*
Y283715D03*
X207350Y134108D03*
Y316707D03*
Y326707D03*
Y336707D03*
Y346707D03*
X215224Y263715D03*
X220106Y25604D03*
Y35604D03*
Y45604D03*
Y55604D03*
Y65604D03*
Y75604D03*
Y85604D03*
Y95604D03*
Y105604D03*
Y115604D03*
Y125604D03*
Y135604D03*
Y145604D03*
Y155604D03*
Y165604D03*
X223098Y315211D03*
Y325211D03*
Y335211D03*
Y345211D03*
X238846Y204974D03*
Y263715D03*
X0Y0D02*
M02*
